<?xml version="1.0" encoding="utf-8"?>
<!-- Generator: Adobe Illustrator 27.5.0, SVG Export Plug-In . SVG Version: 6.00 Build 0)  -->
<svg version="1.1" id="Layer_1" xmlns="http://www.w3.org/2000/svg" xmlns:xlink="http://www.w3.org/1999/xlink" x="0px" y="0px"
	 viewBox="0 0 2000 2000" style="enable-background:new 0 0 2000 2000;" xml:space="preserve">
<path style="fill:#462C4C;" d="M395.332,1343.69c-3.698,1.592-5.093-8.912-14.005-30.556c-8.912-21.644-12.732-33.102,14.005-85.301
	c26.736-52.199,35.648-89.121,28.009-142.593c-7.639-53.473-16.551-114.584-59.838-82.755
	c-43.287,31.829-96.76,110.764-90.394,170.603c6.366,59.838,3.819,71.297,3.819,71.297h-20.37c0,0,7.639-44.56-36.921-89.121
	S80.863,1021.582,68.132,1027.948c-12.732,6.366-15.278,12.732-8.912,31.829s16.551,48.38,22.917,80.209
	c6.366,31.829,21.644,73.843,40.741,85.301s48.38,78.936,48.38,78.936s-12.732,20.37-6.366,39.468
	c6.366,19.097-6.366,47.107-12.732,53.473c-6.366,6.366-17.824,68.75,19.097,110.764c-10.185,43.287-15.278,94.214,7.639,118.403
	c22.917,24.19,98.033,63.658,112.038,81.482c14.005,17.824,22.917,56.019,14.005,68.75s-33.102,34.375-19.097,40.741
	c14.005,6.366,34.375,2.546,43.287-6.366c-6.366,16.551-7.639,26.736-20.37,35.648c-12.732,8.912-39.468,38.195-21.644,42.014
	c17.824,3.819,108.218,3.819,115.857-20.37c7.639-24.19,7.639-54.746,29.283-87.848c21.644-33.102,26.736-56.019,26.736-56.019
	s44.56,39.468,85.301,44.56c40.741,5.093,64.931,1.273,64.931,1.273l15.278,12.731c0,0-81.482,3.819-117.13,12.732
	s-34.375,5.093-45.834,21.644c-11.458,16.551-30.556,35.648-20.37,47.107c10.185,11.458,34.375,17.824,99.306,8.912
	s184.607-31.829,188.427-38.195c3.819-6.366,15.278-21.644,14.005-42.014c-1.273-20.37,0-31.829,0-31.829s30.556-1.273,52.199-8.912
	c21.644-7.639,54.746-25.463,57.292-34.375c2.546-8.912-3.819-10.185-3.819-10.185s21.644-25.463,20.37-39.468
	c-1.273-14.005-10.185-15.278-10.185-15.278s6.366-6.366-1.273-20.37c-7.639-14.005-22.917-16.551-22.917-16.551
	s-2.546-14.005-7.639-19.097c1.273-17.824,7.639-113.311-72.57-182.061S569.755,1268.574,395.332,1343.69z"/>
<path style="fill:#462C4C;" d="M1151.5,1367.697c0,0,18.186,34.167,2.204,41.882s-98.093,34.718-109.115,96.44
	c-11.022,61.722-9.92,87.072-7.164,94.787c2.755,7.715,12.675,61.722,56.762,61.722s50.7,20.941,50.7,20.941
	s14.328,55.108,44.087,73.845s33.065,42.434,23.146,52.904c-9.92,10.471-54.006,35.269-47.393,46.842
	c6.613,11.573,15.981,22.594,34.167,22.594s61.721,0,61.721,0s8.817-4.409,20.941-16.532s24.799-9.92,24.799-9.92
	s-14.879,17.635-14.879,26.452c0,8.817,0,9.92,23.697,9.92s56.211,0,60.619,0c4.409,0,5.511,4.409,10.471-8.817
	c4.96-13.226,6.613-20.941,14.879-23.146s28.105-3.307,28.105-3.307s-24.799,30.861-4.96,30.861c19.839,0,95.338,0,95.338,0
	s19.839,0,30.861-11.573c11.022-11.573,24.248-33.065,35.821-38.025c11.573-4.96,58.966-87.071,36.923-139.424
	c-22.043-52.353-45.189-186.818-148.242-219.332c-103.053-32.514-161.468,0.551-180.205-2.204
	c-18.737-2.755-28.105-29.759-23.146-36.923c4.96-7.164,31.412-45.74,31.963-77.152c0.551-31.412-1.215-94.663-19.839-96.991
	c-22.043-2.755-45.74,23.697-64.477,52.904c-12.124-31.963-30.31-62.273-50.149-56.762
	C1149.296,1265.195,1132.763,1310.935,1151.5,1367.697z"/>
<path style="fill:#462C4C;" d="M1750.151,244.681c0,0-1.29-46.445-43.865-91.599c-42.574-45.155-89.019-73.537-92.889-65.797
	s14.192,126.433,32.253,144.495c18.062,18.062,34.833,46.445,28.383,63.216c-23.222-3.87-105.791-32.253-165.137,43.864
	c-59.346,76.118-79.988,119.982-64.507,178.038c15.482,58.056,12.901,60.636,28.383,76.118s24.512,41.284,18.062,54.186
	c-6.451,12.901,0,30.963,15.482,37.414c15.482,6.451,19.352,19.352,30.963,24.513s77.408,20.642,86.439,7.741
	c9.031-12.901,3.87-33.543-11.611-41.284c-15.482-7.741,12.901-10.321,12.901-10.321s31.608,12.256,32.898,35.479
	s3.87,54.185,18.062,59.346c14.191,5.161,49.025,6.451,55.476-3.87s5.161-23.222-5.161-36.124s-3.87-91.599-3.87-91.599
	s28.383,12.901,33.543,29.673c5.161,16.772-0.845,45.775,0,56.766c1.29,16.772,7.741,16.772,23.222,19.352
	s58.575,0.976,49.025-14.191c-21.932-34.834-20.642-47.735-10.321-70.957s55.476-86.439,51.605-143.205
	s-36.124-156.106-46.445-180.618s34.833-77.408,39.994-86.439s38.704-83.859,25.803-123.853
	c-12.901-39.994-38.704-14.191-38.704-14.191s-51.605,25.803-69.667,61.926C1762.408,198.882,1750.151,244.681,1750.151,244.681z"/>
<path style="fill:#462C4C;" d="M1718.322,1051.589c-19.636-0.207-60.377,20.858-64.768,3.293c-4.391-17.564,28.542-65.866,0-103.19
	c-10.752-14.061,4.512-39.383,21.955-54.888c39.52-35.129,35.129-90.017,24.151-98.799c-10.978-8.782-61.475,2.195-72.453,26.346
	c-10.978,24.151-10.978,100.995-17.564,103.19c-6.587,2.196-32.933-8.782-68.062,13.173
	c-35.129,21.955-127.341,63.671-96.604,120.755c15.474,28.738,63.671,21.955,63.671,21.955s-30.738,76.844-13.173,111.972
	c17.564,35.129,59.28,79.039,61.475,109.777c2.196,30.738-16.467,91.115-36.226,97.701c-19.76,6.587-39.52,24.151-28.542,32.933
	c10.978,8.782,59.28,4.391,59.28,4.391s26.346-8.782,32.933-24.151c6.587-15.369,28.542-61.475,28.542-61.475
	s17.564-2.196,17.564,24.151s-10.978,30.738-24.151,37.324c-13.173,6.587-17.564,17.564-6.587,24.151
	c10.978,6.587,63.671,6.587,63.671,6.587s167.959,14.271,220.651-29.64c52.693-43.911,64.768-159.176,18.662-246.998
	S1822.61,1052.686,1718.322,1051.589z"/>
<path style="fill:#462C4C;" d="M389.528,261.018c4.651,6.083,13.084,24.859,10.467,28.785c-2.617,3.925-1.308,13.084-26.168,5.234
	c-24.859-7.85-132.801-56.915-207.38,33.364S40.843,498.49,114.112,587.461c-28.785,14.392-56.261,40.56-57.569,60.186
	s3.925,20.934,30.093,20.934s99.438,0,99.438,0s31.401,3.925,34.018,19.626s-2.617,41.868,53.644,44.485
	s64.111-11.776,61.494-30.093h37.943c0,0,39.252,22.243,66.728,22.243s75.887-1.308,53.644-35.326c0,0,64.111-3.925,79.812,0
	c15.701,3.925,39.252-5.234,32.71-18.317c-6.542-13.084-37.943-56.261-77.195-56.261c9.159-35.327,20.934-51.027,39.252-68.036
	c18.317-17.009,30.093-37.943,28.785-58.877c23.551,2.617,82.429-22.243,86.354-41.868c3.925-19.626,11.776-28.785,13.084-34.018
	c1.308-5.234,2.617-13.084-11.775-36.635c-14.392-23.551-48.41-91.587-69.345-104.671c-20.934-13.084-78.503-34.018-78.503-34.018
	s-3.925-78.503,6.542-122.989s9.159-69.345-6.542-65.419c-15.701,3.925-13.084,22.243-27.476,47.102s-36.635,82.428-34.018,112.521
	c-45.794-75.887-69.345-115.138-98.129-134.764c-28.785-19.626-54.952-44.485-61.494,9.159
	c-6.542,53.644,31.382,128.527,49.719,149.156C386.257,255.13,381.024,249.896,389.528,261.018z"/>
<path style="fill:#462C4C;" d="M1402.82,813.992c-11.847-22.212-39.982-50.348-45.905-63.675s-4.442-31.097-47.386-45.905
	s-73.3-25.914-73.3-25.914s-8.885-20.731-7.404-39.982c1.481-19.251,17.77-102.176-23.693-131.792
	c-41.463-29.616-53.309-7.404-65.156,29.616c-11.847,37.02-20.731,102.176-4.443,125.869s34.059,41.463,22.212,56.271
	s-77.002,53.309-115.503,44.424c-38.501-8.885-158.447-81.445-290.239-29.616s-168.812,173.255-165.851,268.026
	c0,0-17.77-19.25-25.174-14.808c-7.404,4.442-11.846,13.327-7.404,22.212c4.442,8.885,0,4.442-1.481,17.77
	c-1.481,13.327,22.212,41.463,31.097,48.867c8.885,7.404-5.923,5.923-2.962,13.327c2.962,7.404,23.693,29.616,41.463,35.539
	s63.675,8.885,79.964,0c16.289-8.885,48.867-5.923,50.348,11.846c1.481,17.77,10.366,65.156,35.539,65.156
	s229.525,17.77,233.968,17.77s37.761,0.74,39.241-6.664s29.616-4.443,29.616-4.443s44.424,4.443,44.424-5.923
	c0-10.366-16.289-20.731-16.289-20.731s25.174-4.442,14.808-14.808c-10.366-10.366-51.828-17.77-51.828-41.463
	s2.962-45.905,22.212-50.348c19.25-4.442,112.542-8.885,140.677-72.56s41.463-108.099,75.521-111.061
	c34.059-2.962,79.964-14.808,82.925-38.501C1405.781,828.8,1414.666,836.204,1402.82,813.992z M866.767,1148.655
	c31.097-7.404,32.578-45.905,32.578-45.905l62.194-10.366c0,0,19.25-14.808,26.655,5.923s25.174,57.752,25.174,57.752
	C1005.963,1145.693,943.769,1144.212,866.767,1148.655z"/>
</svg>
